<svg width="25" height="24" viewBox="0 0 25 24" fill="none" xmlns="http://www.w3.org/2000/svg">
<path d="M12.7457 22.9831C18.7672 22.9831 23.75 18.0042 23.75 11.9958C23.75 5.9789 18.7588 1 12.7373 1C6.72427 1 1.75 5.9789 1.75 11.9958C1.75 18.0042 6.73272 22.9831 12.7457 22.9831ZM12.7457 21.4134C7.52657 21.4134 3.32927 17.211 3.32927 11.9958C3.32927 6.77215 7.51813 2.57806 12.7373 2.57806C17.9649 2.57806 22.1707 6.77215 22.1707 11.9958C22.1707 17.211 17.9734 21.4134 12.7457 21.4134Z" fill="#FFC846"/>
<path d="M10.6849 16.2489L16.9007 12.5611C17.3398 12.2996 17.3314 11.7088 16.9007 11.4472L10.6849 7.74258C10.2458 7.48098 9.66309 7.69195 9.66309 8.1814V15.8185C9.66309 16.3079 10.212 16.5358 10.6849 16.2489Z" fill="#FFC846"/>
</svg>
