<svg width="25" height="25" viewBox="0 0 25 25" fill="none" xmlns="http://www.w3.org/2000/svg">
<g clip-path="url(#clip0_44_1410)">
<path d="M2.25 20.9023C2.25 21.3711 2.5625 21.6738 3.03125 21.6738H22.4551C22.8848 21.6738 23.2461 21.332 23.2461 20.8926C23.2461 20.4629 22.8848 20.1113 22.4551 20.1113H4.0957C3.89062 20.1113 3.82227 20.043 3.82227 19.8379V4.39844C3.82227 3.97852 3.4707 3.61719 3.04102 3.61719C2.60156 3.61719 2.25 3.97852 2.25 4.39844V20.9023ZM3.69531 15.6387L7.92383 11.332C8.01172 11.2441 8.09961 11.1953 8.1875 11.1953C8.27539 11.1953 8.36328 11.2441 8.45117 11.332L12.0449 15.0137C12.4648 15.4531 12.9043 15.6582 13.3633 15.6582C13.832 15.6582 14.252 15.4531 14.6914 15.0137L18.6758 11.0098L20.2773 12.6211C20.6289 12.9727 21.0879 12.7578 21.2148 12.2598L22.6602 6.53711C22.7773 6.08789 22.3867 5.7168 21.9473 5.83398L16.2344 7.26953C15.7363 7.40625 15.5215 7.85547 15.873 8.20703L17.4844 9.81836L13.6367 13.7148C13.5488 13.8027 13.4512 13.8516 13.3633 13.8516C13.2852 13.8516 13.1875 13.8027 13.0996 13.7148L9.50586 10.0332C9.07617 9.59375 8.64648 9.38867 8.1875 9.38867C7.72852 9.38867 7.31836 9.58398 6.86914 10.0332L2.50391 14.457L3.69531 15.6387Z" fill="#FFC846"/>
</g>
<defs>
<clipPath id="clip0_44_1410">
<rect width="20.9961" height="18.1738" fill="white" transform="translate(2.25 3.5)"/>
</clipPath>
</defs>
</svg>
