<svg width="25" height="24" viewBox="0 0 25 24" fill="none" xmlns="http://www.w3.org/2000/svg">
<g clip-path="url(#clip0_44_1656)">
<path d="M4.41992 11.9609C4.41992 11.0723 4.55664 10.2129 4.81055 9.42188L3.27734 8.77734C2.94531 9.7832 2.75 10.8477 2.75 11.9609C2.75 13.0645 2.94531 14.1387 3.28711 15.1445L4.81055 14.5C4.55664 13.709 4.41992 12.8496 4.41992 11.9609ZM8.91211 4.55859L8.28711 3.05469C6.35352 4.02148 4.76172 5.61328 3.79492 7.54688L5.31836 8.18164C6.09961 6.62891 7.36914 5.35938 8.91211 4.55859ZM12.7012 3.66016C13.5898 3.66016 14.4492 3.79688 15.2598 4.06055L15.8848 2.53711C14.8789 2.19531 13.8047 2 12.7012 2C11.5977 2 10.5137 2.19531 9.50781 2.53711L10.1523 4.06055C10.9531 3.79688 11.8125 3.66016 12.7012 3.66016ZM20.1035 8.17188L21.6172 7.54688C20.6406 5.61328 19.0488 4.02148 17.1152 3.04492L16.4902 4.55859C18.0332 5.34961 19.3125 6.61914 20.1035 8.17188ZM21.0117 11.9609C21.0117 12.8496 20.875 13.709 20.6211 14.5098L22.1348 15.1543C22.4766 14.1484 22.6719 13.0645 22.6719 11.9609C22.6719 10.8477 22.4766 9.77344 22.1348 8.76758L20.6113 9.41211C20.875 10.2129 21.0117 11.0723 21.0117 11.9609ZM16.4902 19.3535L17.1152 20.877C19.0586 19.9004 20.6504 18.3086 21.6074 16.375L20.1133 15.75C19.3223 17.3027 18.043 18.5625 16.4902 19.3535ZM12.7109 20.2617C11.8125 20.2617 10.9531 20.125 10.1523 19.8613L9.51758 21.3848C10.5234 21.7266 11.6074 21.9219 12.7109 21.9219C13.8145 21.9219 14.8887 21.7266 15.8848 21.3945L15.25 19.8711C14.4492 20.125 13.5996 20.2617 12.7109 20.2617ZM5.31836 15.75L3.80469 16.375C4.78125 18.3086 6.35352 19.9004 8.28711 20.8672L8.91211 19.3438C7.36914 18.5527 6.09961 17.293 5.31836 15.75ZM12.7012 16.8535C14.7422 16.8535 16.1094 15.4961 16.1094 14.8516C16.1094 14.627 15.8848 14.5195 15.6797 14.6172C14.9668 14.998 14.1172 15.4375 12.7012 15.4375C11.2852 15.4375 10.4355 14.998 9.73242 14.6172C9.51758 14.5195 9.29297 14.627 9.29297 14.8516C9.29297 15.4961 10.6602 16.8535 12.7012 16.8535ZM9.81055 11.1016C10.4258 11.1016 10.9727 10.5449 10.9727 9.76367C10.9727 8.97266 10.4356 8.41602 9.81055 8.41602C9.19531 8.41602 8.6582 8.97266 8.6582 9.76367C8.6582 10.5449 9.19531 11.1016 9.81055 11.1016ZM15.6016 11.1016C16.2168 11.1016 16.7637 10.5449 16.7637 9.76367C16.7637 8.97266 16.2266 8.41602 15.6016 8.41602C14.9863 8.41602 14.4492 8.97266 14.4492 9.76367C14.4492 10.5449 14.9863 11.1016 15.6016 11.1016Z" fill="#FFC846"/>
</g>
<defs>
<clipPath id="clip0_44_1656">
<rect width="19.9219" height="19.9316" fill="white" transform="translate(2.75 2)"/>
</clipPath>
</defs>
</svg>
