<svg width="25" height="25" viewBox="0 0 25 25" fill="none" xmlns="http://www.w3.org/2000/svg">
<g clip-path="url(#clip0_44_2162)">
<path d="M5.31641 21.498H18.6562C20.6973 21.498 21.7129 20.4824 21.7129 18.4707V6.54688C21.7129 4.53516 20.6973 3.51953 18.6562 3.51953H5.31641C3.27539 3.51953 2.25 4.52539 2.25 6.54688V18.4707C2.25 20.4922 3.27539 21.498 5.31641 21.498ZM5.16992 19.9258C4.30078 19.9258 3.82227 19.4668 3.82227 18.5586V9.34961C3.82227 8.45117 4.30078 7.98242 5.16992 7.98242H18.7832C19.6523 7.98242 20.1406 8.45117 20.1406 9.34961V18.5586C20.1406 19.4668 19.6523 19.9258 18.7832 19.9258H5.16992ZM6.86914 11.6152H17.123C17.4648 11.6152 17.7285 11.3418 17.7285 11C17.7285 10.668 17.4648 10.4141 17.123 10.4141H6.86914C6.50781 10.4141 6.25391 10.668 6.25391 11C6.25391 11.3418 6.50781 11.6152 6.86914 11.6152ZM6.86914 14.5547H17.123C17.4648 14.5547 17.7285 14.3008 17.7285 13.9688C17.7285 13.6172 17.4648 13.3535 17.123 13.3535H6.86914C6.50781 13.3535 6.25391 13.6172 6.25391 13.9688C6.25391 14.3008 6.50781 14.5547 6.86914 14.5547ZM6.86914 17.4941H13.3828C13.7246 17.4941 13.9883 17.2402 13.9883 16.9082C13.9883 16.5664 13.7246 16.293 13.3828 16.293H6.86914C6.50781 16.293 6.25391 16.5664 6.25391 16.9082C6.25391 17.2402 6.50781 17.4941 6.86914 17.4941Z" fill="#FFC846"/>
</g>
<defs>
<clipPath id="clip0_44_2162">
<rect width="19.4629" height="17.998" fill="white" transform="translate(2.25 3.5)"/>
</clipPath>
</defs>
</svg>
